<?xml version="1.0" encoding="UTF-8" standalone="no"?>
<!-- Created with Inkscape (http://www.inkscape.org/) -->

<svg
   width="178.45695mm"
   height="134.29099mm"
   viewBox="0 0 178.45696 134.29098"
   version="1.1"
   id="svg1"
   xml:space="preserve"
   inkscape:version="1.4.2 (ebf0e94, 2025-05-08)"
   sodipodi:docname="Emblem_of_Syria_(2025–present) (3).svg"
   inkscape:export-filename="EmblemofSyria2025.png"
   inkscape:export-xdpi="150"
   inkscape:export-ydpi="150"
   xmlns:inkscape="http://www.inkscape.org/namespaces/inkscape"
   xmlns:sodipodi="http://sodipodi.sourceforge.net/DTD/sodipodi-0.dtd"
   xmlns="http://www.w3.org/2000/svg"
   xmlns:svg="http://www.w3.org/2000/svg"><sodipodi:namedview
     id="namedview1"
     pagecolor="#ffffff"
     bordercolor="#666666"
     borderopacity="1.0"
     inkscape:showpageshadow="2"
     inkscape:pageopacity="0.0"
     inkscape:pagecheckerboard="0"
     inkscape:deskcolor="#d1d1d1"
     inkscape:document-units="mm"
     inkscape:zoom="0.97386896"
     inkscape:cx="235.14457"
     inkscape:cy="296.24109"
     inkscape:window-width="1920"
     inkscape:window-height="1094"
     inkscape:window-x="-11"
     inkscape:window-y="-11"
     inkscape:window-maximized="1"
     inkscape:current-layer="g1" /><defs
     id="defs1" /><g
     inkscape:label="Layer 1"
     inkscape:groupmode="layer"
     id="layer1"
     transform="translate(-37.10957,-116.79823)"><g
       id="g1"
       transform="matrix(0.26458333,0,0,0.26458333,-192.88125,-149.225)"><g
         id="g2"
         style="stroke:#9e844f;stroke-width:5.38583;stroke-linejoin:round;stroke-dasharray:none;stroke-opacity:1"><path
           desc="l 0 p 0"
           fill="#b8a57b"
           stroke="#b8a57b"
           stroke-width="0.396974"
           opacity="1"
           d="m 1206.2004,1008.135 0.5955,0.1985 6.947,21.238 22.429,0.1986 -18.2608,13.4971 7.1456,21.4365 -0.5954,-0.1985 -13.1002,-9.5274 -3.1758,-1.9849 q -0.2778,-1.4687 -2.3818,-1.1908 l -17.8638,13.1 0.1984,-0.5955 6.7487,-21.0394 -18.2609,-13.4971 22.6276,-0.3971 z"
           id="path2"
           style="stroke:#9e844f;stroke-width:5.38583;stroke-linejoin:round;stroke-dasharray:none;stroke-opacity:1" /><path
           desc="l 0 p 1"
           fill="#b8a57b"
           stroke="#b8a57b"
           stroke-width="0.396974"
           opacity="1"
           d="m 1115.6905,1025.6018 14.6881,17.0698 20.6426,-8.3364 0.1985,0.5955 -6.7486,10.7182 -3.7712,6.1532 -0.9923,2.1832 14.291,17.0699 -0.5955,0.1985 -1.985,-0.794 -4.3667,-0.7939 -15.0849,-3.9697 -11.9091,19.4517 -0.7941,-7.5425 -0.5954,-10.5198 -0.3969,-2.7789 q 0.3969,-1.7864 -0.5956,-2.1833 l -15.0848,-3.5727 -6.5502,-1.7863 21.0396,-8.7336 -0.9924,-13.2986 z"
           id="path3"
           style="stroke:#9e844f;stroke-width:5.38583;stroke-linejoin:round;stroke-dasharray:none;stroke-opacity:1" /><path
           desc="l 0 p 2"
           fill="#b8a57b"
           stroke="#b8a57b"
           stroke-width="0.396974"
           opacity="1"
           d="m 1297.5043,1025.6018 0.1985,2.9772 q -0.8734,0.5162 -0.3971,2.3819 l -0.5954,6.9471 -0.5955,10.1227 13.2987,5.7562 7.3438,3.3742 -14.0925,3.3743 -5.1605,1.1909 -1.5879,0.397 -1.3896,0.5955 -1.7863,22.429 -11.9091,-19.4517 -22.2305,5.1606 2.1833,-2.5803 8.9319,-10.5198 2.3819,-2.7788 q 1.3099,-0.2779 0.9923,-2.1834 l -11.5122,-18.6576 0.9925,-0.1985 13.2986,5.7561 4.1682,1.7864 2.7787,0.7938 z"
           id="path4"
           style="stroke:#9e844f;stroke-width:5.38583;stroke-linejoin:round;stroke-dasharray:none;stroke-opacity:1" /><path
           desc="l 0 p 3"
           fill="#b8a57b"
           stroke="#b8a57b"
           stroke-width="0.396974"
           opacity="1"
           d="m 1039.0749,1091.4994 h 26.2001 6.3516 l 3.5727,0.3968 c 4.6843,0.7411 8.0585,2.7921 10.1228,6.1531 l 1.5879,3.1759 0.794,3.1757 0.397,6.3516 v 14.688 l 0.1985,6.1531 0.5953,3.7712 0.3971,1.9847 c 0,1.8527 0.397,3.3083 1.1911,4.3668 3.5197,12.3856 9.5404,22.2438 18.0621,29.5746 4.4197,4.1815 9.5803,7.6219 15.482,10.3213 3.3875,1.7731 7.2249,3.0963 11.5122,3.9696 l 3.1757,0.794 5.9546,0.794 2.1834,0.1984 7.7409,0.1986 1.9849,-0.397 3.5728,-0.397 1.588,-0.397 c 3.3875,-0.053 5.8354,-1.0451 7.3439,-2.9772 1.3496,-1.1645 2.1435,-2.8847 2.3818,-5.1606 l 2.3818,-8.3365 6.153,-22.4291 2.5805,-10.1229 c -0.3971,-2.2494 -1.3895,-3.9034 -2.9772,-4.9619 -2.6201,-2.2495 -6.7222,-3.0434 -12.3063,-2.3819 l -4.7638,1.5879 c -2.223,0.8204 -4.0093,2.0775 -5.359,3.7712 l -2.4161,2.4519 -1.3551,-5.4291 -0.794,-3.176 -0.1986,-5.359 c 0.6352,-3.3346 2.157,-5.7826 4.5653,-7.344 l 10.5197,-5.359 4.1683,-2.1835 4.7636,-3.5728 c 7.0133,-4.3667 16.4083,-6.3515 28.1852,-5.9546 l 8.7333,1.588 c 8.0189,1.7995 14.3043,5.3061 18.8563,10.5197 2.8846,2.9111 4.4725,7.1455 4.7637,12.7032 l 2.1832,16.4745 3.7714,28.3834 0.7938,7.5424 c 0.6087,0.3441 0.741,1.1381 0.3971,2.382 0.5557,2.4877 1.6805,4.4064 3.3743,5.7559 l 4.3666,1.985 c 1.2703,-0.3176 2.0643,-0.1853 2.3819,0.397 l 11.5121,0.397 1.9849,-0.397 3.5728,-0.397 c 4.5785,-0.4499 8.6144,-1.4424 12.1077,-2.9774 4.2345,-1.4555 8.0719,-3.3079 11.5122,-5.5574 5.2665,-3.2024 9.8978,-7.0399 13.894,-11.5124 l 5.3592,-6.947 3.3742,-5.756 1.588,-3.5728 c 3.7845,-6.5369 5.637,-15.0056 5.5575,-25.4063 v -15.8789 l 0.397,-4.3667 c 0.053,-2.4612 0.715,-4.3137 1.985,-5.5575 0.7938,-1.985 2.0509,-3.5068 3.7712,-4.5653 1.5613,-1.4821 3.6785,-2.4084 6.3514,-2.7789 l 3.5728,-0.3968 h 6.3516 26.2003 l 1.9848,0.3968 4.5652,0.5956 c 6.8015,1.4027 12.3591,4.0491 16.6728,7.9394 l 9.1304,8.7334 135.3678,141.3224 -33.1472,0.1985 c -9.2892,-1.6938 -16.2362,-5.7297 -20.8411,-12.1077 l -43.0716,-51.805 -3.7712,5.3592 78.9976,98.4492 -1.7863,0.1986 -1.5879,-0.3971 h -4.7637 l -1.5878,-0.3968 h -3.5727 l -3.9698,-0.3971 -7.9396,-0.3969 -3.5728,-0.397 -5.9545,-0.794 c -7.2514,-1.879 -12.8752,-5.3856 -16.8713,-10.5197 l -45.4535,-65.3021 -2.1833,1.3893 -2.7788,2.7789 78.6007,117.107 -1.3895,0.1985 -1.5879,-0.397 -5.9546,-0.7938 -16.4744,-2.1835 -5.7561,-0.9924 -3.9698,-0.794 -4.7635,-1.9847 c -4.155,-1.7997 -7.5293,-4.38 -10.1228,-7.7411 l -5.9546,-9.5274 -9.329,-16.4743 -34.5365,-60.3399 -5.7562,3.3743 75.0278,136.5586 -0.9924,0.1985 -6.7485,-1.5879 -17.8638,-3.5727 c -10.0302,-1.3497 -17.5065,-5.2533 -22.4289,-11.7107 l -3.7714,-6.153 -2.9771,-6.947 -8.7336,-18.2609 -35.5289,-76.8143 -6.1532,2.5803 49.2246,110.7555 -2.1832,0.1985 -5.7562,-1.3893 -12.9016,-2.5804 c -8.3893,-1.3762 -14.807,-4.7505 -19.2531,-10.1228 -3.3611,-3.6523 -5.8091,-8.2175 -7.344,-13.6956 l -5.3592,-14.8864 -22.032,-61.3324 -4.3668,0.794 -2.1833,0.5954 31.7579,92.4946 -1.7865,0.1986 -15.4818,-3.1757 c -7.7807,-1.879 -13.8015,-5.518 -18.0624,-10.9169 -3.0169,-3.4669 -5.134,-7.8335 -6.3514,-13.0999 l -3.1758,-12.3064 -12.9016,-48.2321 -5.7562,1.7863 0.3969,2.3819 1.5879,6.7485 3.3743,13.6956 13.2987,54.1868 -0.5955,-0.1985 -13.1001,-2.3818 c -6.5897,-1.7467 -11.8166,-4.8564 -15.6806,-9.3289 -3.4139,-3.5992 -5.7957,-8.2305 -7.1454,-13.894 l -1.5879,-8.7335 -3.9697,-22.6273 -1.7864,-9.3289 -8.3364,19.0546 -2.3817,5.5577 -1.7864,5.7562 c 0.6086,0.344 0.7409,1.1379 0.3969,2.3817 0.344,1.9055 1.1379,3.3611 2.3818,4.3668 l 5.1607,7.9394 19.6501,29.5745 7.741,11.7108 2.1834,3.3742 0.9924,2.1833 0.3969,4.7636 0.3971,3.9697 c -0.3176,1.4027 -0.1191,2.2629 0.5955,2.5804 l 1.1908,1.5878 20.4441,20.0473 0.1985,0.5954 53.7898,0.1985 -0.1984,23.2229 -8.3364,-8.3365 -1.985,-1.9849 c -0.4763,-0.8469 -1.4026,-1.2438 -2.7788,-1.1907 l -1.9849,0.3968 h -4.7637 -0.7938 l -0.794,-0.3968 -1.7864,0.1985 11.5123,11.9091 -13.1002,12.7031 v -9.5273 -2.382 l -0.5954,-1.3893 -2.1835,-2.1834 -8.9319,-8.9319 -1.9847,-0.3968 -1.191,0.3968 h -3.1757 -3.9698 l -0.794,-0.3968 -12.5045,12.1076 -0.1986,10.1228 -10.1229,-10.1228 -2.5803,-2.5804 c -1.1909,-0.5293 -1.3232,-1.0586 -0.3968,-1.5878 l 1.9849,-1.9849 7.5424,-7.5424 1.7863,-1.3896 -21.238,-21.635 -1.9848,0.397 -6.3517,0.794 c -1.9054,-0.3441 -3.361,-1.138 -4.3667,-2.3818 l -7.9394,-5.1607 -33.7427,-22.2305 0.1985,0.5955 81.3794,110.3585 -25.6047,0.1985 c -8.6011,-1.5879 -15.1511,-5.2269 -19.6501,-10.9169 -2.0908,-2.2759 -3.6787,-5.0548 -4.7638,-8.3365 l -5.9546,-12.306 -12.1076,-26.3986 c -2.2495,0.2645 -4.0359,0.9923 -5.3591,2.1832 l 29.7729,75.4249 -12.9016,0.1986 -7.5425,-1.588 c -5.7958,-2.1437 -10.4933,-5.3857 -14.0926,-9.7259 l -4.3666,-7.1454 -1.9848,-5.9546 -1.588,-9.1305 -6.9469,-36.7199 -4.9623,0.9925 4.9623,39.8957 1.1908,9.5274 0.397,3.1757 0.1986,8.535 c -1.0587,6.0869 -3.1759,11.1153 -6.3517,15.085 l -6.5501,6.5501 -7.1455,5.9545 -2.9773,-2.5804 -0.1984,-0.5955 -10.1229,-9.3287 c -1.9054,-2.329 -3.361,-5.1078 -4.3667,-8.3365 -1.0585,-1.7202 -1.654,-3.9035 -1.7863,-6.55 l -0.1985,-8.535 0.5954,-3.3742 0.9924,-9.329 0.397,-1.5879 0.3969,-3.1756 1.3895,-10.9168 2.9774,-24.4138 -4.9623,-0.9925 -4.7637,25.0092 -2.1832,11.3139 -0.3971,3.1756 -1.1909,5.9546 c -1.6673,7.4632 -5.0415,13.2193 -10.1227,17.2684 -3.8904,3.5199 -8.9188,5.9017 -15.0851,7.1455 l -2.9772,0.1985 -12.5047,0.1986 -0.1986,-0.5956 29.7731,-75.0279 c -1.3233,-1.1909 -3.1097,-1.9187 -5.3592,-2.1832 l -15.2834,32.7501 -3.9696,8.3365 c -1.7468,3.9433 -4.1948,7.1852 -7.3441,9.7259 l -4.5651,2.9773 -3.7714,1.7863 c -1.6143,1.1645 -3.7315,1.8261 -6.3515,1.9849 l -2.7789,0.397 h -4.7635 -19.0549 l -0.1985,-0.5955 81.7766,-110.3585 -0.5956,-0.1985 -32.3531,21.635 -8.138,5.3592 -2.5804,1.7863 c -0.7675,0.8205 -2.0245,1.1513 -3.7712,0.9925 l -3.3742,-0.5955 -4.1683,-0.1985 -20.8411,21.238 11.9091,11.5124 -13.894,13.497 v -7.1456 c 0.4763,-1.7731 0.2778,-2.8978 -0.5955,-3.3742 l -2.1833,-2.1834 -8.9319,-8.9319 h -7.5425 l -3.9697,-0.3968 -8.9318,8.9317 -2.3819,2.3819 c -1.0586,0.5293 -1.3233,1.8526 -0.794,3.9698 l -0.1984,9.7258 -9.5274,-9.5274 -2.3818,-2.3819 c -1.1909,-0.5292 -1.3233,-1.0585 -0.3971,-1.5878 l 2.1834,-2.1834 8.7334,-8.7334 -0.1985,-0.5953 -1.9847,0.3968 -0.7941,-0.3968 h -0.7939 l -1.9849,0.3968 h -4.3668 l -0.7939,-0.3968 -1.3893,0.5953 -2.3818,2.3818 -8.7334,8.3365 0.1985,-23.2229 h 39.6973 9.9243 c 2.7258,0.6086 4.3798,0.1455 4.9621,-1.3893 l 4.1682,-4.1683 17.2683,-17.2683 0.3971,-7.9395 0.7939,-4.3667 2.1833,-2.9773 8.1379,-12.1078 19.8486,-30.1698 5.1608,-7.5425 c 1.7201,-1.7202 2.6464,-4.2344 2.7787,-7.5425 l -3.9697,-10.7183 -8.5349,-19.2531 -1.9848,10.3212 -2.5804,14.8865 -0.7939,5.5577 -1.985,9.9243 c -1.4291,5.9811 -4.0094,10.8109 -7.7409,14.4895 l -0.9924,0.5954 -0.1985,0.5955 c -3.9962,3.9433 -9.2892,6.5898 -15.8789,7.9396 l -11.5121,2.3817 -0.1986,-0.9925 0.7938,-2.3818 0.3971,-2.3817 2.7789,-10.3214 10.3212,-42.0791 2.5803,-10.5199 1.7863,-8.5349 -5.7559,-1.7863 -3.9698,14.2909 -9.3288,35.5292 -3.1758,11.1152 c -1.6937,7.569 -5.2003,13.3251 -10.5198,17.2684 -4.0492,3.4933 -9.3422,5.7428 -15.8789,6.7485 l -14.6881,2.7788 0.1985,-0.5955 31.3609,-92.0977 -1.7864,-0.5954 -4.7637,-0.794 -22.2304,61.5309 -5.3591,14.8864 c -1.8791,6.9867 -5.2534,12.4782 -10.1229,16.4743 -4.5254,4.0757 -10.6123,6.5899 -18.2606,7.5426 l -11.5123,2.3818 -7.1454,1.588 -0.1986,-0.5956 48.8275,-110.7555 -5.7559,-2.5803 -35.3306,76.2189 -9.3289,20.4442 -3.17582,6.3514 c -1.85255,3.9697 -4.43286,7.2117 -7.74093,9.7259 -2.99049,2.5671 -6.69559,4.4196 -11.1153,5.5577 l -8.73336,1.9847 -23.42144,4.7637 -0.19838,-0.5954 75.02793,-136.1617 -5.7562,-3.3743 -33.9412,59.3475 -10.32124,18.2607 c -2.38183,4.896 -5.49147,9.0642 -9.32892,12.5047 -3.44041,3.1758 -7.87326,5.3591 -13.29857,6.55 l -8.13796,1.3894 -9.92434,1.191 -14.68793,1.9848 0.59543,-0.9923 77.80668,-116.7102 -2.97733,-2.5803 c -0.13235,-0.9262 -0.79398,-1.3232 -1.98489,-1.1909 l -33.54415,47.8352 -7.93944,11.9092 c -2.2495,3.7051 -4.96216,6.9471 -8.13797,9.7259 l -8.73336,5.1606 -3.37437,0.9924 -4.96211,0.9925 -5.95456,0.397 -24.21536,1.5879 0.19851,-0.5956 58.75197,-73.44 14.88645,-18.0622 3.96977,-5.1607 c 0.79389,-0.1323 1.1247,-0.7277 0.99245,-1.7863 l -3.77127,-4.9622 -44.85796,53.9884 -0.59541,0.1984 -0.59556,0.9924 -6.35158,4.7638 -7.3439,2.9772 -3.96979,0.794 -6.5501,0.1985 h -26.59715 l 2.97735,-3.3743 65.30205,-68.4779 0.59542,-0.1985 74.43244,-77.6081 c 4.3932,-3.811 9.8185,-6.5898 16.2758,-8.3365 l 5.5577,-0.794 z"
           id="path5"
           sodipodi:nodetypes="ccccccccccccccccccccccccccccccccccccccccccccccccccccccccccccccccccccccccccccccccccccccccccccccccccccccccccccccccccccccccccccccccccccccccccccccccccccccccccccccccccccccccccccccccccccccccccccccccccccccccccccccccccccccccccccccccccccccccccccccccccccccccccccccccccccccccccccccccccccccccccccccccccccccccccccccccccccccccccccccccccccccccccccccccccccccccccccccccccccccccccccccccccccccccccccccccccccccc"
           style="stroke:#9e844f;stroke-width:5.38583;stroke-linejoin:round;stroke-dasharray:none;stroke-opacity:1" /></g></g></g></svg>
